# xmcd
#
# Track frame offsets:
# 150
# 30685
# 52257
# 77055
# 110135
#
# Disc length: 1799 seconds
#
#
# Revision: 0
# Processed by: cddbd v1.5.2PL0 Copyright (c) Steve Scherf et al.
# Submitted via: FreeRIP 2.951 
#
DISCID=41070505
DTITLE=Jesse Powell - Gloria (Maxi Single)
DYEAR=1996
DGENRE=R&B
TTITLE0=Gloria(Extended "Live" Version)
TTITLE1=Gloria(Remix Version)
TTITLE2=Gloria(Extended Single Version)
TTITLE3=Gloria(LP Version)
TTITLE4=All I Need (Marly's Extended Pirate Version)
EXTD=
EXTT0=
EXTT1=
EXTT2=
EXTT3=
EXTT4=
PLAYORDER=
